<?xml version="1.0" standalone="no"?>
<!DOCTYPE svg PUBLIC "-//W3C//DTD SVG 20010904//EN"
 "http://www.w3.org/TR/2001/REC-SVG-20010904/DTD/svg10.dtd">
<svg version="1.0" xmlns="http://www.w3.org/2000/svg"
 width="600.000000pt" height="600.000000pt" viewBox="0 0 600.000000 600.000000"
 preserveAspectRatio="xMidYMid meet">

<g transform="translate(0.000000,600.000000) scale(0.100000,-0.100000)"
fill="#000000" stroke="none">
<path d="M1057 5689 c-108 -26 -210 -110 -260 -217 l-32 -67 -5 -559 -5 -558
-66 -23 c-162 -54 -280 -180 -324 -346 -23 -84 -22 -2728 0 -2814 37 -141 139
-268 263 -327 69 -33 70 -34 76 -78 3 -25 22 -79 41 -119 65 -135 198 -240
343 -270 76 -16 3700 -16 3774 0 180 38 340 197 378 375 11 50 12 51 63 67
144 46 265 168 319 325 l23 67 0 1360 c0 1289 -1 1363 -18 1420 -47 154 -163
280 -307 333 l-55 20 -5 543 c-6 589 -6 584 -64 683 -37 63 -127 141 -194 168
l-57 23 -1925 2 c-1098 0 -1941 -3 -1963 -8z m3862 -175 c61 -18 123 -75 143
-132 10 -29 13 -156 13 -566 l0 -528 -55 -17 c-169 -53 -279 -158 -336 -320
l-24 -66 0 -1287 0 -1288 -1665 0 -1664 0 -3 1288 c-3 1286 -3 1287 -24 1349
-53 152 -171 269 -321 318 l-53 17 0 533 0 533 28 53 c30 58 88 106 143 119
19 4 874 8 1900 9 1660 1 1871 -1 1918 -15z m-3957 -1432 c59 -26 133 -99 161
-160 l22 -47 0 -1290 0 -1290 -45 -6 c-158 -24 -296 -135 -367 -297 -15 -34
-30 -62 -34 -62 -18 0 -91 65 -119 104 -64 94 -60 -2 -60 1470 0 882 4 1354
10 1378 14 49 66 125 112 161 84 68 219 84 320 39z m4320 0 c59 -26 133 -99
161 -160 l22 -47 3 -1357 c2 -1334 2 -1357 -18 -1410 -24 -66 -70 -122 -129
-159 -65 -42 -75 -39 -100 30 -38 104 -135 213 -236 264 -17 8 -56 23 -88 32
l-57 16 0 1277 c0 838 4 1290 10 1314 14 49 66 125 112 161 84 68 219 84 320
39z m-373 -2997 c115 -64 176 -174 169 -305 -8 -124 -81 -230 -196 -283 l-47
-22 -1850 0 c-1763 0 -1852 1 -1902 18 -70 24 -145 93 -180 165 -24 49 -28 68
-27 142 0 69 5 95 24 135 34 70 105 138 171 163 l54 21 1865 -2 1865 -2 54
-30z"/>
</g>
</svg>
